<?xml version="1.0" encoding="utf-8"?>
<!-- Generator: Adobe Illustrator 14.0.0, SVG Export Plug-In . SVG Version: 6.00 Build 43363)  -->
<!DOCTYPE svg PUBLIC "-//W3C//DTD SVG 1.0//EN" "http://www.w3.org/TR/2001/REC-SVG-20010904/DTD/svg10.dtd">
<svg version="1.0" id="Layer_1" xmlns="http://www.w3.org/2000/svg" xmlns:xlink="http://www.w3.org/1999/xlink" x="0px" y="0px"
	 width="43.75px" height="100px" viewBox="0 0 43.75 100" enable-background="new 0 0 43.75 100" xml:space="preserve">
<path d="M39.833,43.877v34.247c0,9.901-8.057,17.958-17.958,17.958c-9.902,0-17.958-8.057-17.958-17.958V17.959
	c0-7.743,6.299-14.041,14.04-14.04c7.742-0.001,14.04,6.297,14.04,14.04v60.165c0,5.581-4.54,10.122-10.121,10.122
	c-5.582,0-10.121-4.541-10.121-10.122V43.877H7.835v34.247c0,7.74,6.298,14.039,14.04,14.039c7.741,0,14.039-6.298,14.039-14.039
	V17.958C35.914,8.056,27.859,0,17.957,0C8.056,0,0,8.056,0,17.958v60.166C0,90.187,9.813,100,21.875,100
	c12.062,0,21.876-9.813,21.875-21.876V43.877H39.833z"/>
</svg>
