<?xml version="1.0" encoding="UTF-8" standalone="no"?>
<!-- Generator: Adobe Illustrator 14.0.0, SVG Export Plug-In . SVG Version: 6.00 Build 43363)  -->

<svg
   xmlns:dc="http://purl.org/dc/elements/1.1/"
   xmlns:cc="http://creativecommons.org/ns#"
   xmlns:rdf="http://www.w3.org/1999/02/22-rdf-syntax-ns#"
   xmlns:svg="http://www.w3.org/2000/svg"
   xmlns="http://www.w3.org/2000/svg"
   xmlns:sodipodi="http://sodipodi.sourceforge.net/DTD/sodipodi-0.dtd"
   xmlns:inkscape="http://www.inkscape.org/namespaces/inkscape"
   version="1.0"
   id="Layer_1"
   x="0px"
   y="0px"
   width="36"
   height="36"
   viewBox="0 0 35.999999 36"
   enable-background="new 0 0 52.365 100"
   xml:space="preserve"
   inkscape:version="0.48.1 r9760"
   sodipodi:docname="timeline.svg"><metadata
   id="metadata11"><rdf:RDF><cc:Work
       rdf:about=""><dc:format>image/svg+xml</dc:format><dc:type
         rdf:resource="http://purl.org/dc/dcmitype/StillImage" /></cc:Work></rdf:RDF></metadata><defs
   id="defs9" /><sodipodi:namedview
   pagecolor="#ffffff"
   bordercolor="#666666"
   borderopacity="1"
   objecttolerance="10"
   gridtolerance="10"
   guidetolerance="10"
   inkscape:pageopacity="0"
   inkscape:pageshadow="2"
   inkscape:window-width="727"
   inkscape:window-height="480"
   id="namedview7"
   showgrid="false"
   inkscape:zoom="4.5068269"
   inkscape:cx="35.612639"
   inkscape:cy="35.582485"
   inkscape:window-x="0"
   inkscape:window-y="23"
   inkscape:window-maximized="0"
   inkscape:current-layer="Layer_1" />
<path
   d="M 23.11038,10.08144 V 1.81692 C 23.11038,0.8136 22.29678,0 21.29346,0 h -6.58692 c -1.00332,0 -1.81728,0.8136 -1.81728,1.81692 v 8.26452 C 10.29366,11.76048 8.5742995,14.67828 8.5742995,18 c 0,3.32172 1.7193605,6.23952 4.3149605,7.91856 v 8.26452 C 12.88926,35.1864 13.70322,36 14.70654,36 h 6.58692 c 1.00332,0 1.81692,-0.8136 1.81692,-1.81692 V 25.91856 C 25.70634,24.23952 27.425699,21.32172 27.425699,18 c 0,-3.32172 -1.71936,-6.23952 -4.31532,-7.91856 z m -5.1102,16.3224 c -4.64148,0 -8.4038405,-3.76236 -8.4038405,-8.40384 0,-4.64148 3.7623605,-8.40384 8.4038405,-8.40384 4.64148,0 8.40348,3.76236 8.40348,8.40384 0,4.64148 -3.76236,8.40384 -8.40348,8.40384 z"
   id="path3"
   inkscape:connector-curvature="0" />
<path
   d="m 23.7555,13.87944 c -1.89972,1.20456 -3.7998,2.40984 -5.69952,3.61476 -0.98928,-0.98964 -1.97928,-1.97964 -2.96892,-2.96928 -0.36288,-0.36288 -0.92448,0.19944 -0.56196,0.56196 1.06452,1.06488 2.12904,2.1294 3.19392,3.19428 0.03096,0.0306 0.06336,0.05256 0.09648,0.07056 0.1062,0.06768 0.243719,0.08136 0.3852,-0.0086 1.985399,-1.25892 3.97044,-2.5182 5.955839,-3.77748 0.431281,-0.27324 0.03312,-0.96156 -0.401039,-0.68616 z"
   id="path5"
   inkscape:connector-curvature="0" />
</svg>